<svg width="42" height="60" viewBox="0 0 42 60" fill="none" xmlns="http://www.w3.org/2000/svg">
<g clip-path="url(#clip0_39_2)">
<path d="M30.6468 30.6717V25.4545H33.9459L41.2096 19.5551C41.3158 19.477 41.4021 19.3751 41.4617 19.2576C41.5212 19.14 41.5522 19.0101 41.5522 18.8783V1.2792C41.5522 1.05942 41.466 0.848415 41.3122 0.691474C41.1583 0.534533 40.9491 0.444169 40.7293 0.439783L18.6621 0.000447277C18.5137 -0.00282438 18.367 0.0334748 18.2372 0.105617C18.1074 0.17776 17.9992 0.283147 17.9236 0.410955L12.1433 10.1389C11.8826 10.4969 12.0798 11.3008 12.4199 15.0756C10.1307 15.0682 9.85465 14.9733 9.48609 15.3807L0.369844 24.377C0.00761717 24.6787 0 24.9746 0 24.9746L0.599766 43.447H6.4773V60.0002H28.0685L34.7678 55.3795C34.8831 55.3029 34.9776 55.199 35.0431 55.077C35.1085 54.955 35.1427 54.8187 35.1428 54.6803V35.8178C35.1428 35.5951 35.0543 35.3815 34.8968 35.224C34.7394 35.0666 34.5258 34.9781 34.3031 34.9781H27.0953C29.6952 31.9843 30.6472 31.332 30.6468 30.6717ZM19.1175 1.68912L38.7717 2.08041L31.635 9.62107H14.4033L19.1175 1.68912ZM2.15508 24.9746L10.4119 16.8266L12.5119 16.8776L12.9546 24.9746H2.15508ZM28.0685 57.8153V42.9072L33.4635 38.2509V54.2299L28.0685 57.8151V57.8153ZM32.74 36.6574L25.9848 42.4875H19.7918L25.5994 36.6574H32.74ZM28.9675 30.352L21.0602 39.2281L21.3512 25.4545H28.9675V30.352ZM33.9866 22.7747L34.1858 9.62107L39.8729 3.35974V18.453L33.9866 22.7747Z" fill="black"/>
</g>
<defs>
<clipPath id="clip0_39_2">
<rect width="41.6016" height="60" fill="white"/>
</clipPath>
</defs>
</svg>
