<svg width="199" height="47" viewBox="0 0 199 47" fill="none" xmlns="http://www.w3.org/2000/svg">
<path d="M10.16 38.4C8.37333 38.4 6.66667 38.1067 5.04 37.52C3.41333 36.9333 2.01333 36.0667 0.84 34.92L2.76 31.44C4.01333 32.4533 5.24 33.2 6.44 33.68C7.66667 34.16 8.84 34.4 9.96 34.4C11 34.4 11.8267 34.2133 12.44 33.84C13.08 33.4667 13.4 32.9067 13.4 32.16C13.4 31.6533 13.2267 31.2667 12.88 31C12.5333 30.7067 12.0267 30.4533 11.36 30.24C10.72 30.0267 9.93333 29.7867 9 29.52C7.45333 29.0133 6.16 28.52 5.12 28.04C4.08 27.56 3.29333 26.96 2.76 26.24C2.25333 25.4933 2 24.5467 2 23.4C2 22.0133 2.34667 20.8267 3.04 19.84C3.76 18.8267 4.74667 18.04 6 17.48C7.28 16.92 8.77333 16.64 10.48 16.64C11.9733 16.64 13.3867 16.88 14.72 17.36C16.0533 17.8133 17.2667 18.56 18.36 19.6L16.2 23C15.1333 22.1733 14.12 21.5733 13.16 21.2C12.2 20.8 11.2267 20.6 10.24 20.6C9.68 20.6 9.14667 20.6667 8.64 20.8C8.16 20.9333 7.76 21.16 7.44 21.48C7.14667 21.7733 7 22.2 7 22.76C7 23.2667 7.13333 23.6667 7.4 23.96C7.69333 24.2267 8.12 24.4667 8.68 24.68C9.26667 24.8933 9.97333 25.1333 10.8 25.4C12.48 25.88 13.8933 26.3733 15.04 26.88C16.2133 27.3867 17.0933 28.0133 17.68 28.76C18.2667 29.48 18.56 30.48 18.56 31.76C18.56 33.84 17.8 35.4667 16.28 36.64C14.76 37.8133 12.72 38.4 10.16 38.4ZM31.8856 38.4C30.179 38.4 28.6456 38.12 27.2856 37.56C25.9256 36.9733 24.7656 36.1733 23.8056 35.16C22.8723 34.1467 22.1523 32.9867 21.6456 31.68C21.139 30.3733 20.8856 29 20.8856 27.56C20.8856 26.0933 21.139 24.7067 21.6456 23.4C22.1523 22.0933 22.8723 20.9333 23.8056 19.92C24.7656 18.9067 25.9256 18.12 27.2856 17.56C28.6456 16.9733 30.179 16.68 31.8856 16.68C33.5923 16.68 35.1123 16.9733 36.4456 17.56C37.8056 18.12 38.9656 18.9067 39.9256 19.92C40.8856 20.9333 41.6056 22.0933 42.0856 23.4C42.5923 24.7067 42.8456 26.0933 42.8456 27.56C42.8456 29 42.5923 30.3733 42.0856 31.68C41.6056 32.9867 40.8856 34.1467 39.9256 35.16C38.9923 36.1733 37.8456 36.9733 36.4856 37.56C35.1256 38.12 33.5923 38.4 31.8856 38.4ZM26.4056 27.56C26.4056 28.7867 26.6456 29.88 27.1256 30.84C27.6056 31.7733 28.259 32.5067 29.0856 33.04C29.9123 33.5733 30.8456 33.84 31.8856 33.84C32.899 33.84 33.819 33.5733 34.6456 33.04C35.4723 32.48 36.1256 31.7333 36.6056 30.8C37.1123 29.84 37.3656 28.7467 37.3656 27.52C37.3656 26.32 37.1123 25.24 36.6056 24.28C36.1256 23.32 35.4723 22.5733 34.6456 22.04C33.819 21.5067 32.899 21.24 31.8856 21.24C30.8456 21.24 29.9123 21.52 29.0856 22.08C28.259 22.6133 27.6056 23.36 27.1256 24.32C26.6456 25.2533 26.4056 26.3333 26.4056 27.56ZM58.9434 21.68C57.3168 21.68 55.8634 22 54.5834 22.64C53.3034 23.2533 52.3834 24.1467 51.8234 25.32V38H46.4634V17.04H51.3834V21.52C52.1301 20.08 53.0768 18.9467 54.2234 18.12C55.3701 17.2933 56.5834 16.84 57.8634 16.76C58.1568 16.76 58.3834 16.76 58.5434 16.76C58.7034 16.76 58.8368 16.7733 58.9434 16.8V21.68ZM61.07 29.44V24.6H73.19V29.44H61.07ZM76.4688 31.8C76.4688 30.44 76.8421 29.2533 77.5888 28.24C78.3621 27.2 79.4288 26.4 80.7888 25.84C82.1488 25.28 83.7088 25 85.4688 25C86.3488 25 87.2421 25.0667 88.1488 25.2C89.0554 25.3333 89.8421 25.5467 90.5088 25.84V24.72C90.5088 23.3867 90.1088 22.36 89.3088 21.64C88.5354 20.92 87.3754 20.56 85.8288 20.56C84.6821 20.56 83.5888 20.76 82.5488 21.16C81.5088 21.56 80.4154 22.1467 79.2688 22.92L77.5488 19.4C78.9354 18.4933 80.3488 17.8133 81.7888 17.36C83.2554 16.9067 84.7888 16.68 86.3888 16.68C89.3754 16.68 91.6954 17.4267 93.3488 18.92C95.0288 20.4133 95.8688 22.5467 95.8688 25.32V32C95.8688 32.56 95.9621 32.96 96.1488 33.2C96.3621 33.44 96.6954 33.5867 97.1488 33.64V38C96.6688 38.08 96.2288 38.1467 95.8288 38.2C95.4554 38.2533 95.1354 38.28 94.8688 38.28C93.8021 38.28 92.9888 38.04 92.4288 37.56C91.8954 37.08 91.5621 36.4933 91.4288 35.8L91.3088 34.72C90.4021 35.8933 89.2688 36.8 87.9088 37.44C86.5488 38.08 85.1621 38.4 83.7488 38.4C82.3621 38.4 81.1088 38.12 79.9888 37.56C78.8954 36.9733 78.0288 36.1867 77.3888 35.2C76.7754 34.1867 76.4688 33.0533 76.4688 31.8ZM89.5088 32.88C89.8021 32.56 90.0421 32.24 90.2288 31.92C90.4154 31.6 90.5088 31.3067 90.5088 31.04V28.92C89.8688 28.6533 89.1754 28.4533 88.4288 28.32C87.6821 28.16 86.9754 28.08 86.3088 28.08C84.9221 28.08 83.7754 28.3867 82.8688 29C81.9888 29.5867 81.5488 30.3733 81.5488 31.36C81.5488 31.8933 81.6954 32.4 81.9888 32.88C82.2821 33.36 82.7088 33.7467 83.2688 34.04C83.8288 34.3333 84.4954 34.48 85.2688 34.48C86.0688 34.48 86.8554 34.3333 87.6288 34.04C88.4021 33.72 89.0288 33.3333 89.5088 32.88ZM100.838 8.8H106.198V31.28C106.198 32.24 106.358 32.8933 106.678 33.24C106.998 33.56 107.438 33.72 107.998 33.72C108.424 33.72 108.864 33.6667 109.318 33.56C109.771 33.4533 110.171 33.32 110.518 33.16L111.238 37.24C110.518 37.5867 109.678 37.8533 108.717 38.04C107.758 38.2267 106.891 38.32 106.118 38.32C104.438 38.32 103.131 37.88 102.198 37C101.291 36.0933 100.838 34.8133 100.838 33.16V8.8ZM113.453 38V32.24H117.853V38H113.453ZM120.837 45.84C119.851 45.84 118.904 45.68 117.997 45.36C117.091 45.0667 116.264 44.6 115.517 43.96L117.837 40.32C118.131 40.64 118.491 40.8667 118.917 41C119.344 41.1333 119.771 41.2 120.197 41.2C120.677 41.2 121.104 41.08 121.477 40.84C121.877 40.6267 122.184 40.32 122.397 39.92C122.637 39.52 122.757 39.0667 122.757 38.56V17.04H128.117V38.16C128.117 39.6533 127.784 40.9867 127.117 42.16C126.477 43.3333 125.611 44.24 124.517 44.88C123.451 45.52 122.224 45.84 120.837 45.84ZM122.757 14.12V8.8H128.117V14.12H122.757ZM140.707 38.4C138.92 38.4 137.214 38.1067 135.587 37.52C133.96 36.9333 132.56 36.0667 131.387 34.92L133.307 31.44C134.56 32.4533 135.787 33.2 136.987 33.68C138.214 34.16 139.387 34.4 140.507 34.4C141.547 34.4 142.374 34.2133 142.987 33.84C143.627 33.4667 143.947 32.9067 143.947 32.16C143.947 31.6533 143.774 31.2667 143.427 31C143.08 30.7067 142.574 30.4533 141.907 30.24C141.267 30.0267 140.48 29.7867 139.547 29.52C138 29.0133 136.707 28.52 135.667 28.04C134.627 27.56 133.84 26.96 133.307 26.24C132.8 25.4933 132.547 24.5467 132.547 23.4C132.547 22.0133 132.894 20.8267 133.587 19.84C134.307 18.8267 135.294 18.04 136.547 17.48C137.827 16.92 139.32 16.64 141.027 16.64C142.52 16.64 143.934 16.88 145.267 17.36C146.6 17.8133 147.814 18.56 148.907 19.6L146.747 23C145.68 22.1733 144.667 21.5733 143.707 21.2C142.747 20.8 141.774 20.6 140.787 20.6C140.227 20.6 139.694 20.6667 139.187 20.8C138.707 20.9333 138.307 21.16 137.987 21.48C137.694 21.7733 137.547 22.2 137.547 22.76C137.547 23.2667 137.68 23.6667 137.947 23.96C138.24 24.2267 138.667 24.4667 139.227 24.68C139.814 24.8933 140.52 25.1333 141.347 25.4C143.027 25.88 144.44 26.3733 145.587 26.88C146.76 27.3867 147.64 28.0133 148.227 28.76C148.814 29.48 149.107 30.48 149.107 31.76C149.107 33.84 148.347 35.4667 146.827 36.64C145.307 37.8133 143.267 38.4 140.707 38.4Z" fill="black"/>
<path d="M159.625 6.625H163.375V10.375H159.625V6.625Z" fill="#43B9AA"/>
<path d="M159.625 14.125H170.875V17.875H159.625V14.125Z" fill="#43B9AA"/>
<path d="M159.625 21.625H178.375V25.375H159.625V21.625Z" fill="#43B9AA"/>
<path d="M159.625 29.125H185.875V32.875H159.625V29.125Z" fill="#43B9AA"/>
<path d="M159.625 36.625H193.375V40.375H159.625V36.625Z" fill="#43B9AA"/>
</svg>
