<svg width="688" height="395" viewBox="0 0 688 395" fill="none" xmlns="http://www.w3.org/2000/svg">
<rect width="688" height="395" rx="15" fill="#F1F1F1"/>
<path d="M109.309 160.035C108.409 159.045 107.209 158.235 105.709 157.605C104.209 156.945 102.499 156.615 100.579 156.615C97.7589 156.615 95.7039 157.155 94.4139 158.235C93.1239 159.285 92.4789 160.725 92.4789 162.555C92.4789 163.815 92.7939 164.805 93.4239 165.525C94.0539 166.245 95.0139 166.845 96.3039 167.325C97.6239 167.775 99.3039 168.225 101.344 168.675C103.624 169.155 105.589 169.725 107.239 170.385C108.889 171.045 110.164 171.945 111.064 173.085C111.964 174.195 112.414 175.71 112.414 177.63C112.414 179.58 111.919 181.2 110.929 182.49C109.939 183.78 108.574 184.74 106.834 185.37C105.094 185.97 103.114 186.27 100.894 186.27C95.9139 186.27 91.6389 184.725 88.0689 181.635L89.6439 179.07C90.7839 180.27 92.3439 181.305 94.3239 182.175C96.3339 183.045 98.5539 183.48 100.984 183.48C103.504 183.48 105.484 183.015 106.924 182.085C108.364 181.155 109.084 179.775 109.084 177.945C109.084 176.625 108.724 175.575 108.004 174.795C107.284 173.985 106.204 173.325 104.764 172.815C103.324 172.305 101.554 171.81 99.4539 171.33C97.2339 170.82 95.3589 170.25 93.8289 169.62C92.3289 168.99 91.1889 168.165 90.4089 167.145C89.6289 166.125 89.2389 164.745 89.2389 163.005C89.2389 161.025 89.7189 159.36 90.6789 158.01C91.6689 156.63 93.0189 155.595 94.7289 154.905C96.4389 154.185 98.4039 153.825 100.624 153.825C102.724 153.825 104.614 154.155 106.294 154.815C107.974 155.445 109.489 156.345 110.839 157.515L109.309 160.035ZM137.048 186H133.988V172.905C133.988 167.595 132.188 164.94 128.588 164.94C127.418 164.94 126.278 165.24 125.168 165.84C124.058 166.41 123.068 167.205 122.198 168.225C121.358 169.215 120.758 170.355 120.398 171.645V186H117.338V153.15H120.398V167.865C121.328 166.125 122.618 164.745 124.268 163.725C125.948 162.675 127.733 162.15 129.623 162.15C131.423 162.15 132.863 162.585 133.943 163.455C135.023 164.295 135.803 165.48 136.283 167.01C136.793 168.51 137.048 170.265 137.048 172.275V186ZM153.563 186.45C151.313 186.45 149.303 185.895 147.533 184.785C145.793 183.675 144.428 182.205 143.438 180.375C142.448 178.515 141.953 176.505 141.953 174.345C141.953 172.155 142.448 170.145 143.438 168.315C144.458 166.455 145.838 164.97 147.578 163.86C149.348 162.72 151.343 162.15 153.563 162.15C155.813 162.15 157.808 162.72 159.548 163.86C161.318 164.97 162.698 166.455 163.688 168.315C164.708 170.145 165.218 172.155 165.218 174.345C165.218 176.505 164.723 178.515 163.733 180.375C162.743 182.205 161.363 183.675 159.593 184.785C157.853 185.895 155.843 186.45 153.563 186.45ZM145.058 174.39C145.058 176.13 145.433 177.72 146.183 179.16C146.963 180.57 147.998 181.695 149.288 182.535C150.578 183.345 152.003 183.75 153.563 183.75C155.123 183.75 156.548 183.33 157.838 182.49C159.128 181.65 160.163 180.51 160.943 179.07C161.723 177.63 162.113 176.04 162.113 174.3C162.113 172.56 161.723 170.97 160.943 169.53C160.163 168.09 159.128 166.95 157.838 166.11C156.548 165.27 155.123 164.85 153.563 164.85C152.033 164.85 150.623 165.285 149.333 166.155C148.043 166.995 147.008 168.135 146.228 169.575C145.448 171.015 145.058 172.62 145.058 174.39ZM182.036 165.255C179.996 165.315 178.196 165.885 176.636 166.965C175.106 168.045 174.026 169.53 173.396 171.42V186H170.336V162.555H173.216V168.18C174.026 166.53 175.091 165.195 176.411 164.175C177.761 163.155 179.186 162.585 180.686 162.465C180.986 162.435 181.241 162.42 181.451 162.42C181.661 162.42 181.856 162.435 182.036 162.465V165.255ZM197.362 184.875C197.002 185.025 196.342 185.295 195.382 185.685C194.422 186.075 193.312 186.27 192.052 186.27C190.732 186.27 189.577 185.895 188.587 185.145C187.597 184.395 187.102 183.27 187.102 181.77V164.985H183.862V162.555H187.102V154.635H190.162V162.555H195.562V164.985H190.162V180.915C190.222 181.785 190.522 182.43 191.062 182.85C191.632 183.24 192.277 183.435 192.997 183.435C193.837 183.435 194.587 183.3 195.247 183.03C195.937 182.73 196.372 182.52 196.552 182.4L197.362 184.875ZM247.53 186H244.47V172.905C244.47 170.205 244.035 168.21 243.165 166.92C242.295 165.6 241.005 164.94 239.295 164.94C237.495 164.94 235.905 165.57 234.525 166.83C233.145 168.09 232.17 169.71 231.6 171.69V186H228.54V172.905C228.54 170.145 228.105 168.135 227.235 166.875C226.395 165.585 225.12 164.94 223.41 164.94C221.64 164.94 220.05 165.555 218.64 166.785C217.26 168.015 216.285 169.635 215.715 171.645V186H212.655V162.555H215.445V167.865C216.405 166.065 217.665 164.67 219.225 163.68C220.785 162.66 222.51 162.15 224.4 162.15C226.35 162.15 227.925 162.72 229.125 163.86C230.325 164.97 231.06 166.41 231.33 168.18C233.49 164.16 236.505 162.15 240.375 162.15C243.015 162.15 244.86 163.08 245.91 164.94C246.99 166.77 247.53 169.215 247.53 172.275V186ZM263.998 186.45C261.748 186.45 259.738 185.895 257.968 184.785C256.228 183.675 254.863 182.205 253.873 180.375C252.883 178.515 252.388 176.505 252.388 174.345C252.388 172.155 252.883 170.145 253.873 168.315C254.893 166.455 256.273 164.97 258.013 163.86C259.783 162.72 261.778 162.15 263.998 162.15C266.248 162.15 268.243 162.72 269.983 163.86C271.753 164.97 273.133 166.455 274.123 168.315C275.143 170.145 275.653 172.155 275.653 174.345C275.653 176.505 275.158 178.515 274.168 180.375C273.178 182.205 271.798 183.675 270.028 184.785C268.288 185.895 266.278 186.45 263.998 186.45ZM255.493 174.39C255.493 176.13 255.868 177.72 256.618 179.16C257.398 180.57 258.433 181.695 259.723 182.535C261.013 183.345 262.438 183.75 263.998 183.75C265.558 183.75 266.983 183.33 268.273 182.49C269.563 181.65 270.598 180.51 271.378 179.07C272.158 177.63 272.548 176.04 272.548 174.3C272.548 172.56 272.158 170.97 271.378 169.53C270.598 168.09 269.563 166.95 268.273 166.11C266.983 165.27 265.558 164.85 263.998 164.85C262.468 164.85 261.058 165.285 259.768 166.155C258.478 166.995 257.443 168.135 256.663 169.575C255.883 171.015 255.493 172.62 255.493 174.39ZM286.954 186L277.459 162.555H280.654L288.664 182.94L296.719 162.555H299.734L290.239 186H286.954ZM303.974 157.65V153.15H307.034V157.65H303.974ZM303.974 186V162.555H307.034V186H303.974ZM323.898 186.45C321.648 186.45 319.638 185.895 317.868 184.785C316.098 183.675 314.703 182.19 313.683 180.33C312.663 178.47 312.153 176.43 312.153 174.21C312.153 172.02 312.648 170.01 313.638 168.18C314.658 166.35 316.053 164.895 317.823 163.815C319.593 162.705 321.603 162.15 323.853 162.15C326.163 162.15 328.188 162.705 329.928 163.815C331.668 164.925 333.018 166.395 333.978 168.225C334.968 170.025 335.463 172.005 335.463 174.165C335.463 174.645 335.448 175.05 335.418 175.38H315.348C315.498 177.06 315.978 178.56 316.788 179.88C317.598 181.17 318.633 182.205 319.893 182.985C321.153 183.735 322.533 184.11 324.033 184.11C325.563 184.11 327.003 183.72 328.353 182.94C329.703 182.16 330.663 181.14 331.233 179.88L333.888 180.6C333.408 181.74 332.658 182.76 331.638 183.66C330.648 184.53 329.493 185.22 328.173 185.73C326.853 186.21 325.428 186.45 323.898 186.45ZM315.258 173.175H332.583C332.463 171.495 331.998 170.01 331.188 168.72C330.378 167.4 329.343 166.38 328.083 165.66C326.823 164.91 325.428 164.535 323.898 164.535C322.368 164.535 320.973 164.91 319.713 165.66C318.453 166.38 317.418 167.4 316.608 168.72C315.828 170.01 315.378 171.495 315.258 173.175ZM361.644 186.45C359.394 186.45 357.384 185.895 355.614 184.785C353.874 183.675 352.509 182.205 351.519 180.375C350.529 178.515 350.034 176.505 350.034 174.345C350.034 172.155 350.529 170.145 351.519 168.315C352.539 166.455 353.919 164.97 355.659 163.86C357.429 162.72 359.424 162.15 361.644 162.15C363.894 162.15 365.889 162.72 367.629 163.86C369.399 164.97 370.779 166.455 371.769 168.315C372.789 170.145 373.299 172.155 373.299 174.345C373.299 176.505 372.804 178.515 371.814 180.375C370.824 182.205 369.444 183.675 367.674 184.785C365.934 185.895 363.924 186.45 361.644 186.45ZM353.139 174.39C353.139 176.13 353.514 177.72 354.264 179.16C355.044 180.57 356.079 181.695 357.369 182.535C358.659 183.345 360.084 183.75 361.644 183.75C363.204 183.75 364.629 183.33 365.919 182.49C367.209 181.65 368.244 180.51 369.024 179.07C369.804 177.63 370.194 176.04 370.194 174.3C370.194 172.56 369.804 170.97 369.024 169.53C368.244 168.09 367.209 166.95 365.919 166.11C364.629 165.27 363.204 164.85 361.644 164.85C360.114 164.85 358.704 165.285 357.414 166.155C356.124 166.995 355.089 168.135 354.309 169.575C353.529 171.015 353.139 172.62 353.139 174.39ZM390.117 165.255C388.077 165.315 386.277 165.885 384.717 166.965C383.187 168.045 382.107 169.53 381.477 171.42V186H378.417V162.555H381.297V168.18C382.107 166.53 383.172 165.195 384.492 164.175C385.842 163.155 387.267 162.585 388.767 162.465C389.067 162.435 389.322 162.42 389.532 162.42C389.742 162.42 389.937 162.435 390.117 162.465V165.255ZM418.063 186.225C415.903 186.225 413.908 185.775 412.078 184.875C410.278 183.945 408.703 182.7 407.353 181.14C406.003 179.58 404.953 177.84 404.203 175.92C403.483 173.97 403.123 171.99 403.123 169.98C403.123 167.85 403.483 165.825 404.203 163.905C404.953 161.955 405.988 160.23 407.308 158.73C408.628 157.2 410.188 156 411.988 155.13C413.788 154.26 415.753 153.825 417.883 153.825C421.033 153.825 423.598 154.47 425.578 155.76C427.558 157.05 429.058 158.73 430.078 160.8L427.648 162.42C426.628 160.44 425.263 158.985 423.553 158.055C421.843 157.125 419.938 156.66 417.838 156.66C416.068 156.66 414.463 157.035 413.023 157.785C411.613 158.535 410.398 159.54 409.378 160.8C408.388 162.06 407.623 163.485 407.083 165.075C406.543 166.665 406.273 168.315 406.273 170.025C406.273 171.825 406.573 173.535 407.173 175.155C407.773 176.745 408.613 178.17 409.693 179.43C410.803 180.66 412.078 181.635 413.518 182.355C414.988 183.045 416.578 183.39 418.288 183.39C420.118 183.39 421.858 182.955 423.508 182.085C425.188 181.215 426.793 179.865 428.323 178.035V172.725H421.213V170.295H430.978V186H428.323V181.32C425.383 184.59 421.963 186.225 418.063 186.225ZM437.45 186V154.05H440.6V186H437.45ZM448.612 186V154.05H469.582V156.84H451.762V168.585H466.792V171.195H451.762V186H448.612ZM483.006 179.25C483.006 177.81 483.426 176.565 484.266 175.515C485.106 174.435 486.261 173.595 487.731 172.995C489.231 172.395 490.956 172.095 492.906 172.095C494.046 172.095 495.231 172.2 496.461 172.41C497.691 172.59 498.786 172.845 499.746 173.175V171.195C499.746 169.215 499.161 167.64 497.991 166.47C496.821 165.3 495.201 164.715 493.131 164.715C491.901 164.715 490.671 164.955 489.441 165.435C488.211 165.885 486.936 166.56 485.616 167.46L484.446 165.3C485.976 164.25 487.476 163.47 488.946 162.96C490.416 162.42 491.916 162.15 493.446 162.15C496.326 162.15 498.606 162.975 500.286 164.625C501.966 166.275 502.806 168.555 502.806 171.465V182.31C502.806 183.12 503.181 183.54 503.931 183.57V186C503.271 186.09 502.806 186.12 502.536 186.09C501.786 186.06 501.216 185.82 500.826 185.37C500.436 184.92 500.226 184.44 500.196 183.93L500.151 182.22C499.101 183.57 497.736 184.62 496.056 185.37C494.376 186.09 492.666 186.45 490.926 186.45C489.396 186.45 488.031 186.135 486.831 185.505C485.631 184.845 484.686 183.975 483.996 182.895C483.336 181.785 483.006 180.57 483.006 179.25ZM498.711 181.05C499.401 180.24 499.746 179.49 499.746 178.8V175.38C497.676 174.57 495.516 174.165 493.266 174.165C491.076 174.165 489.306 174.6 487.956 175.47C486.606 176.34 485.931 177.525 485.931 179.025C485.931 180.315 486.426 181.485 487.416 182.535C488.436 183.585 489.846 184.11 491.646 184.11C493.116 184.11 494.481 183.825 495.741 183.255C497.031 182.685 498.021 181.95 498.711 181.05ZM520.893 186.45C519.063 186.45 517.368 185.985 515.808 185.055C514.248 184.095 513.033 182.895 512.163 181.455V186H509.418V153.15H512.478V167.46C513.528 165.87 514.788 164.595 516.258 163.635C517.728 162.645 519.438 162.15 521.388 162.15C523.038 162.15 524.508 162.495 525.798 163.185C527.118 163.875 528.243 164.805 529.173 165.975C530.103 167.115 530.808 168.42 531.288 169.89C531.768 171.33 532.008 172.815 532.008 174.345C532.008 176.535 531.513 178.545 530.523 180.375C529.563 182.205 528.243 183.675 526.563 184.785C524.883 185.895 522.993 186.45 520.893 186.45ZM520.173 183.75C521.883 183.75 523.383 183.3 524.673 182.4C525.993 181.5 527.028 180.345 527.778 178.935C528.528 177.495 528.903 175.965 528.903 174.345C528.903 172.695 528.543 171.15 527.823 169.71C527.133 168.27 526.158 167.1 524.898 166.2C523.638 165.3 522.183 164.85 520.533 164.85C518.703 164.85 517.083 165.435 515.673 166.605C514.293 167.775 513.228 169.14 512.478 170.7V177.99C512.628 179.07 513.123 180.045 513.963 180.915C514.803 181.785 515.793 182.475 516.933 182.985C518.073 183.495 519.153 183.75 520.173 183.75ZM547.181 186.45C544.931 186.45 542.921 185.895 541.151 184.785C539.411 183.675 538.046 182.205 537.056 180.375C536.066 178.515 535.571 176.505 535.571 174.345C535.571 172.155 536.066 170.145 537.056 168.315C538.076 166.455 539.456 164.97 541.196 163.86C542.966 162.72 544.961 162.15 547.181 162.15C549.431 162.15 551.426 162.72 553.166 163.86C554.936 164.97 556.316 166.455 557.306 168.315C558.326 170.145 558.836 172.155 558.836 174.345C558.836 176.505 558.341 178.515 557.351 180.375C556.361 182.205 554.981 183.675 553.211 184.785C551.471 185.895 549.461 186.45 547.181 186.45ZM538.676 174.39C538.676 176.13 539.051 177.72 539.801 179.16C540.581 180.57 541.616 181.695 542.906 182.535C544.196 183.345 545.621 183.75 547.181 183.75C548.741 183.75 550.166 183.33 551.456 182.49C552.746 181.65 553.781 180.51 554.561 179.07C555.341 177.63 555.731 176.04 555.731 174.3C555.731 172.56 555.341 170.97 554.561 169.53C553.781 168.09 552.746 166.95 551.456 166.11C550.166 165.27 548.741 164.85 547.181 164.85C545.651 164.85 544.241 165.285 542.951 166.155C541.661 166.995 540.626 168.135 539.846 169.575C539.066 171.015 538.676 172.62 538.676 174.39ZM563.729 176.325V162.555H566.789V175.785C566.789 181.095 568.604 183.75 572.234 183.75C574.034 183.75 575.714 183.165 577.274 181.995C578.864 180.825 580.004 179.265 580.694 177.315V162.555H583.754V182.31C583.754 183.12 584.114 183.54 584.834 183.57V186C584.474 186.06 584.189 186.09 583.979 186.09C583.799 186.09 583.604 186.09 583.394 186.09C582.764 186.03 582.224 185.79 581.774 185.37C581.354 184.95 581.144 184.44 581.144 183.84L581.054 180.69C580.034 182.52 578.639 183.945 576.869 184.965C575.129 185.955 573.239 186.45 571.199 186.45C566.219 186.45 563.729 183.075 563.729 176.325ZM601.923 184.875C601.563 185.025 600.903 185.295 599.943 185.685C598.983 186.075 597.873 186.27 596.613 186.27C595.293 186.27 594.138 185.895 593.148 185.145C592.158 184.395 591.663 183.27 591.663 181.77V164.985H588.423V162.555H591.663V154.635H594.723V162.555H600.123V164.985H594.723V180.915C594.783 181.785 595.083 182.43 595.623 182.85C596.193 183.24 596.838 183.435 597.558 183.435C598.398 183.435 599.148 183.3 599.808 183.03C600.498 182.73 600.933 182.52 601.113 182.4L601.923 184.875ZM167.55 239.45C165.63 239.45 163.845 239.135 162.195 238.505C160.575 237.845 159.15 236.885 157.92 235.625L159.18 233.465C160.5 234.695 161.82 235.595 163.14 236.165C164.49 236.705 165.915 236.975 167.415 236.975C169.215 236.975 170.685 236.615 171.825 235.895C172.995 235.145 173.58 234.08 173.58 232.7C173.58 231.77 173.295 231.065 172.725 230.585C172.185 230.075 171.39 229.67 170.34 229.37C169.32 229.07 168.09 228.725 166.65 228.335C165.03 227.885 163.665 227.42 162.555 226.94C161.475 226.43 160.65 225.8 160.08 225.05C159.54 224.27 159.27 223.265 159.27 222.035C159.27 220.535 159.645 219.275 160.395 218.255C161.175 217.235 162.225 216.47 163.545 215.96C164.895 215.42 166.395 215.15 168.045 215.15C169.845 215.15 171.435 215.435 172.815 216.005C174.195 216.575 175.32 217.37 176.19 218.39L174.705 220.46C173.895 219.5 172.89 218.795 171.69 218.345C170.52 217.865 169.245 217.625 167.865 217.625C166.905 217.625 165.99 217.76 165.12 218.03C164.25 218.27 163.53 218.69 162.96 219.29C162.42 219.86 162.15 220.655 162.15 221.675C162.15 222.935 162.615 223.805 163.545 224.285C164.475 224.765 165.885 225.275 167.775 225.815C169.545 226.295 171.09 226.775 172.41 227.255C173.73 227.735 174.75 228.38 175.47 229.19C176.19 229.97 176.55 231.065 176.55 232.475C176.55 234.665 175.725 236.375 174.075 237.605C172.425 238.835 170.25 239.45 167.55 239.45ZM191.598 239.45C189.348 239.45 187.338 238.895 185.568 237.785C183.828 236.675 182.463 235.205 181.473 233.375C180.483 231.515 179.988 229.505 179.988 227.345C179.988 225.155 180.483 223.145 181.473 221.315C182.493 219.455 183.873 217.97 185.613 216.86C187.383 215.72 189.378 215.15 191.598 215.15C193.848 215.15 195.843 215.72 197.583 216.86C199.353 217.97 200.733 219.455 201.723 221.315C202.743 223.145 203.253 225.155 203.253 227.345C203.253 229.505 202.758 231.515 201.768 233.375C200.778 235.205 199.398 236.675 197.628 237.785C195.888 238.895 193.878 239.45 191.598 239.45ZM183.093 227.39C183.093 229.13 183.468 230.72 184.218 232.16C184.998 233.57 186.033 234.695 187.323 235.535C188.613 236.345 190.038 236.75 191.598 236.75C193.158 236.75 194.583 236.33 195.873 235.49C197.163 234.65 198.198 233.51 198.978 232.07C199.758 230.63 200.148 229.04 200.148 227.3C200.148 225.56 199.758 223.97 198.978 222.53C198.198 221.09 197.163 219.95 195.873 219.11C194.583 218.27 193.158 217.85 191.598 217.85C190.068 217.85 188.658 218.285 187.368 219.155C186.078 219.995 185.043 221.135 184.263 222.575C183.483 224.015 183.093 225.62 183.093 227.39ZM220.071 218.255C218.031 218.315 216.231 218.885 214.671 219.965C213.141 221.045 212.061 222.53 211.431 224.42V239H208.371V215.555H211.251V221.18C212.061 219.53 213.126 218.195 214.446 217.175C215.796 216.155 217.221 215.585 218.721 215.465C219.021 215.435 219.276 215.42 219.486 215.42C219.696 215.42 219.891 215.435 220.071 215.465V218.255ZM235.397 237.875C235.037 238.025 234.377 238.295 233.417 238.685C232.457 239.075 231.347 239.27 230.087 239.27C228.767 239.27 227.612 238.895 226.622 238.145C225.632 237.395 225.137 236.27 225.137 234.77V217.985H221.897V215.555H225.137V207.635H228.197V215.555H233.597V217.985H228.197V233.915C228.257 234.785 228.557 235.43 229.097 235.85C229.667 236.24 230.312 236.435 231.032 236.435C231.872 236.435 232.622 236.3 233.282 236.03C233.972 235.73 234.407 235.52 234.587 235.4L235.397 237.875ZM239.22 210.65V206.15H242.28V210.65H239.22ZM239.22 239V215.555H242.28V239H239.22ZM268.73 239H265.67V225.905C265.67 223.145 265.25 221.135 264.41 219.875C263.6 218.585 262.34 217.94 260.63 217.94C259.43 217.94 258.245 218.24 257.075 218.84C255.905 219.41 254.87 220.205 253.97 221.225C253.1 222.215 252.47 223.355 252.08 224.645V239H249.02V215.555H251.81V220.865C252.74 219.155 254.105 217.775 255.905 216.725C257.705 215.675 259.655 215.15 261.755 215.15C263.495 215.15 264.875 215.57 265.895 216.41C266.915 217.22 267.635 218.39 268.055 219.92C268.505 221.42 268.73 223.205 268.73 225.275V239ZM284.66 239.315C283.04 239.315 281.555 238.985 280.205 238.325C278.885 237.665 277.73 236.78 276.74 235.67C275.78 234.53 275.03 233.24 274.49 231.8C273.95 230.36 273.68 228.875 273.68 227.345C273.68 225.155 274.145 223.145 275.075 221.315C276.005 219.455 277.28 217.97 278.9 216.86C280.55 215.72 282.44 215.15 284.57 215.15C286.58 215.15 288.32 215.66 289.79 216.68C291.29 217.7 292.55 218.96 293.57 220.46V215.555H296.315V239.09C296.315 241.28 295.79 243.11 294.74 244.58C293.69 246.05 292.295 247.16 290.555 247.91C288.815 248.66 286.91 249.035 284.84 249.035C282.14 249.035 279.965 248.555 278.315 247.595C276.695 246.635 275.36 245.345 274.31 243.725L276.2 242.24C277.13 243.71 278.36 244.805 279.89 245.525C281.45 246.245 283.1 246.605 284.84 246.605C286.37 246.605 287.765 246.32 289.025 245.75C290.315 245.21 291.335 244.385 292.085 243.275C292.865 242.165 293.255 240.77 293.255 239.09V234.455C292.355 235.925 291.125 237.11 289.565 238.01C288.005 238.88 286.37 239.315 284.66 239.315ZM285.515 236.75C286.745 236.75 287.915 236.465 289.025 235.895C290.135 235.325 291.065 234.605 291.815 233.735C292.595 232.835 293.075 231.905 293.255 230.945V223.7C292.805 222.56 292.16 221.555 291.32 220.685C290.48 219.785 289.52 219.095 288.44 218.615C287.36 218.105 286.265 217.85 285.155 217.85C283.415 217.85 281.915 218.33 280.655 219.29C279.425 220.22 278.465 221.42 277.775 222.89C277.115 224.33 276.785 225.83 276.785 227.39C276.785 229.07 277.175 230.63 277.955 232.07C278.735 233.48 279.785 234.62 281.105 235.49C282.425 236.33 283.895 236.75 285.515 236.75ZM312.652 232.25C312.652 230.81 313.072 229.565 313.912 228.515C314.752 227.435 315.907 226.595 317.377 225.995C318.877 225.395 320.602 225.095 322.552 225.095C323.692 225.095 324.877 225.2 326.107 225.41C327.337 225.59 328.432 225.845 329.392 226.175V224.195C329.392 222.215 328.807 220.64 327.637 219.47C326.467 218.3 324.847 217.715 322.777 217.715C321.547 217.715 320.317 217.955 319.087 218.435C317.857 218.885 316.582 219.56 315.262 220.46L314.092 218.3C315.622 217.25 317.122 216.47 318.592 215.96C320.062 215.42 321.562 215.15 323.092 215.15C325.972 215.15 328.252 215.975 329.932 217.625C331.612 219.275 332.452 221.555 332.452 224.465V235.31C332.452 236.12 332.827 236.54 333.577 236.57V239C332.917 239.09 332.452 239.12 332.182 239.09C331.432 239.06 330.862 238.82 330.472 238.37C330.082 237.92 329.872 237.44 329.842 236.93L329.797 235.22C328.747 236.57 327.382 237.62 325.702 238.37C324.022 239.09 322.312 239.45 320.572 239.45C319.042 239.45 317.677 239.135 316.477 238.505C315.277 237.845 314.332 236.975 313.642 235.895C312.982 234.785 312.652 233.57 312.652 232.25ZM328.357 234.05C329.047 233.24 329.392 232.49 329.392 231.8V228.38C327.322 227.57 325.162 227.165 322.912 227.165C320.722 227.165 318.952 227.6 317.602 228.47C316.252 229.34 315.577 230.525 315.577 232.025C315.577 233.315 316.072 234.485 317.062 235.535C318.082 236.585 319.492 237.11 321.292 237.11C322.762 237.11 324.127 236.825 325.387 236.255C326.677 235.685 327.667 234.95 328.357 234.05ZM339.199 206.15H342.259V233.69C342.259 234.86 342.454 235.625 342.844 235.985C343.264 236.345 343.789 236.525 344.419 236.525C344.959 236.525 345.499 236.465 346.039 236.345C346.609 236.225 347.074 236.105 347.434 235.985L347.974 238.46C347.404 238.7 346.699 238.895 345.859 239.045C345.049 239.195 344.344 239.27 343.744 239.27C342.364 239.27 341.254 238.865 340.414 238.055C339.604 237.245 339.199 236.135 339.199 234.725V206.15ZM360.73 239.315C359.11 239.315 357.625 238.985 356.275 238.325C354.955 237.665 353.8 236.78 352.81 235.67C351.85 234.53 351.1 233.24 350.56 231.8C350.02 230.36 349.75 228.875 349.75 227.345C349.75 225.155 350.215 223.145 351.145 221.315C352.075 219.455 353.35 217.97 354.97 216.86C356.62 215.72 358.51 215.15 360.64 215.15C362.65 215.15 364.39 215.66 365.86 216.68C367.36 217.7 368.62 218.96 369.64 220.46V215.555H372.385V239.09C372.385 241.28 371.86 243.11 370.81 244.58C369.76 246.05 368.365 247.16 366.625 247.91C364.885 248.66 362.98 249.035 360.91 249.035C358.21 249.035 356.035 248.555 354.385 247.595C352.765 246.635 351.43 245.345 350.38 243.725L352.27 242.24C353.2 243.71 354.43 244.805 355.96 245.525C357.52 246.245 359.17 246.605 360.91 246.605C362.44 246.605 363.835 246.32 365.095 245.75C366.385 245.21 367.405 244.385 368.155 243.275C368.935 242.165 369.325 240.77 369.325 239.09V234.455C368.425 235.925 367.195 237.11 365.635 238.01C364.075 238.88 362.44 239.315 360.73 239.315ZM361.585 236.75C362.815 236.75 363.985 236.465 365.095 235.895C366.205 235.325 367.135 234.605 367.885 233.735C368.665 232.835 369.145 231.905 369.325 230.945V223.7C368.875 222.56 368.23 221.555 367.39 220.685C366.55 219.785 365.59 219.095 364.51 218.615C363.43 218.105 362.335 217.85 361.225 217.85C359.485 217.85 357.985 218.33 356.725 219.29C355.495 220.22 354.535 221.42 353.845 222.89C353.185 224.33 352.855 225.83 352.855 227.39C352.855 229.07 353.245 230.63 354.025 232.07C354.805 233.48 355.855 234.62 357.175 235.49C358.495 236.33 359.965 236.75 361.585 236.75ZM389.132 239.45C386.882 239.45 384.872 238.895 383.102 237.785C381.362 236.675 379.997 235.205 379.007 233.375C378.017 231.515 377.522 229.505 377.522 227.345C377.522 225.155 378.017 223.145 379.007 221.315C380.027 219.455 381.407 217.97 383.147 216.86C384.917 215.72 386.912 215.15 389.132 215.15C391.382 215.15 393.377 215.72 395.117 216.86C396.887 217.97 398.267 219.455 399.257 221.315C400.277 223.145 400.787 225.155 400.787 227.345C400.787 229.505 400.292 231.515 399.302 233.375C398.312 235.205 396.932 236.675 395.162 237.785C393.422 238.895 391.412 239.45 389.132 239.45ZM380.627 227.39C380.627 229.13 381.002 230.72 381.752 232.16C382.532 233.57 383.567 234.695 384.857 235.535C386.147 236.345 387.572 236.75 389.132 236.75C390.692 236.75 392.117 236.33 393.407 235.49C394.697 234.65 395.732 233.51 396.512 232.07C397.292 230.63 397.682 229.04 397.682 227.3C397.682 225.56 397.292 223.97 396.512 222.53C395.732 221.09 394.697 219.95 393.407 219.11C392.117 218.27 390.692 217.85 389.132 217.85C387.602 217.85 386.192 218.285 384.902 219.155C383.612 219.995 382.577 221.135 381.797 222.575C381.017 224.015 380.627 225.62 380.627 227.39ZM417.605 218.255C415.565 218.315 413.765 218.885 412.205 219.965C410.675 221.045 409.595 222.53 408.965 224.42V239H405.905V215.555H408.785V221.18C409.595 219.53 410.66 218.195 411.98 217.175C413.33 216.155 414.755 215.585 416.255 215.465C416.555 215.435 416.81 215.42 417.02 215.42C417.23 215.42 417.425 215.435 417.605 215.465V218.255ZM421.681 210.65V206.15H424.741V210.65H421.681ZM421.681 239V215.555H424.741V239H421.681ZM442.731 237.875C442.371 238.025 441.711 238.295 440.751 238.685C439.791 239.075 438.681 239.27 437.421 239.27C436.101 239.27 434.946 238.895 433.956 238.145C432.966 237.395 432.471 236.27 432.471 234.77V217.985H429.231V215.555H432.471V207.635H435.531V215.555H440.931V217.985H435.531V233.915C435.591 234.785 435.891 235.43 436.431 235.85C437.001 236.24 437.646 236.435 438.366 236.435C439.206 236.435 439.956 236.3 440.616 236.03C441.306 235.73 441.741 235.52 441.921 235.4L442.731 237.875ZM466.264 239H463.204V225.905C463.204 220.595 461.404 217.94 457.804 217.94C456.634 217.94 455.494 218.24 454.384 218.84C453.274 219.41 452.284 220.205 451.414 221.225C450.574 222.215 449.974 223.355 449.614 224.645V239H446.554V206.15H449.614V220.865C450.544 219.125 451.834 217.745 453.484 216.725C455.164 215.675 456.949 215.15 458.839 215.15C460.639 215.15 462.079 215.585 463.159 216.455C464.239 217.295 465.019 218.48 465.499 220.01C466.009 221.51 466.264 223.265 466.264 225.275V239ZM507.665 239H504.605V225.905C504.605 223.205 504.17 221.21 503.3 219.92C502.43 218.6 501.14 217.94 499.43 217.94C497.63 217.94 496.04 218.57 494.66 219.83C493.28 221.09 492.305 222.71 491.735 224.69V239H488.675V225.905C488.675 223.145 488.24 221.135 487.37 219.875C486.53 218.585 485.255 217.94 483.545 217.94C481.775 217.94 480.185 218.555 478.775 219.785C477.395 221.015 476.42 222.635 475.85 224.645V239H472.79V215.555H475.58V220.865C476.54 219.065 477.8 217.67 479.36 216.68C480.92 215.66 482.645 215.15 484.535 215.15C486.485 215.15 488.06 215.72 489.26 216.86C490.46 217.97 491.195 219.41 491.465 221.18C493.625 217.16 496.64 215.15 500.51 215.15C503.15 215.15 504.995 216.08 506.045 217.94C507.125 219.77 507.665 222.215 507.665 225.275V239ZM521.837 239.45C519.917 239.45 518.132 239.135 516.482 238.505C514.862 237.845 513.437 236.885 512.207 235.625L513.467 233.465C514.787 234.695 516.107 235.595 517.427 236.165C518.777 236.705 520.202 236.975 521.702 236.975C523.502 236.975 524.972 236.615 526.112 235.895C527.282 235.145 527.867 234.08 527.867 232.7C527.867 231.77 527.582 231.065 527.012 230.585C526.472 230.075 525.677 229.67 524.627 229.37C523.607 229.07 522.377 228.725 520.937 228.335C519.317 227.885 517.952 227.42 516.842 226.94C515.762 226.43 514.937 225.8 514.367 225.05C513.827 224.27 513.557 223.265 513.557 222.035C513.557 220.535 513.932 219.275 514.682 218.255C515.462 217.235 516.512 216.47 517.832 215.96C519.182 215.42 520.682 215.15 522.332 215.15C524.132 215.15 525.722 215.435 527.102 216.005C528.482 216.575 529.607 217.37 530.477 218.39L528.992 220.46C528.182 219.5 527.177 218.795 525.977 218.345C524.807 217.865 523.532 217.625 522.152 217.625C521.192 217.625 520.277 217.76 519.407 218.03C518.537 218.27 517.817 218.69 517.247 219.29C516.707 219.86 516.437 220.655 516.437 221.675C516.437 222.935 516.902 223.805 517.832 224.285C518.762 224.765 520.172 225.275 522.062 225.815C523.832 226.295 525.377 226.775 526.697 227.255C528.017 227.735 529.037 228.38 529.757 229.19C530.477 229.97 530.837 231.065 530.837 232.475C530.837 234.665 530.012 236.375 528.362 237.605C526.712 238.835 524.537 239.45 521.837 239.45Z" fill="black"/>
</svg>
