<svg width="65" height="65" viewBox="0 0 65 65" fill="none" xmlns="http://www.w3.org/2000/svg">
<path d="M50.104 24.375C52.8123 27.2459 54.1665 30.8588 54.1665 35.2084C54.1665 44.5955 44.1457 46.7892 39.2707 59.5834C37.4642 58.0261 36.5623 55.77 36.5623 52.8125C36.5623 43.3821 50.104 38.4855 50.104 24.375ZM39.2707 13.5417C42.5207 16.8946 44.1457 20.5075 44.1457 24.375C44.1457 37.784 27.7738 39.7909 31.1457 59.5834C26.6309 56.4417 24.3748 51.9269 24.3748 46.0417C24.3748 37.0365 39.2707 29.7917 39.2707 13.5417ZM27.0832 2.70837C30.6934 7.22317 32.4998 11.2857 32.4998 14.8959C32.4998 31.823 9.479 37.1638 21.6665 59.5834C14.5815 58.0125 9.479 51.4584 9.479 43.3334C9.479 25.7292 27.0832 23.0209 27.0832 2.70837Z" fill="black"/>
</svg>
