<svg width="45" height="56" viewBox="0 0 45 56" fill="none" xmlns="http://www.w3.org/2000/svg">
<path d="M39.5003 0.5H14.5003C11.7503 0.5 9.50029 2.75 9.50029 5.5V10.5C9.50029 11.875 10.6253 13 12.0003 13C13.3753 13 14.5003 11.875 14.5003 10.5V8H39.5003V48H14.5003V45.5C14.5003 44.125 13.3753 43 12.0003 43C10.6253 43 9.50029 44.125 9.50029 45.5V50.5C9.50029 53.25 11.7503 55.5 14.5003 55.5H39.5003C42.2503 55.5 44.5003 53.25 44.5003 50.5V5.5C44.5003 2.75 42.2503 0.5 39.5003 0.5ZM9.52529 31.675L4.72529 26.875C3.85029 26 2.42529 26 1.55029 26.875C0.675293 27.75 0.675293 29.175 1.55029 30.05L7.72529 36.225C8.70029 37.2 10.2753 37.2 11.2503 36.225L25.8753 21.6C26.7503 20.725 26.7503 19.3 25.8753 18.425C25.0003 17.55 23.5753 17.55 22.7003 18.425L9.52529 31.675Z" fill="black"/>
</svg>
